<svg xmlns="http://www.w3.org/2000/svg" xmlns:xlink="http://www.w3.org/1999/xlink" width="1920" zoomAndPan="magnify" viewBox="0 0 1440 209.999996" height="280" preserveAspectRatio="xMidYMid meet" version="1.0"><defs><clipPath id="2bdd058b98"><path d="M 1.035156 118.667969 L 1438.964844 118.667969 L 1438.964844 210 L 1.035156 210 Z M 1.035156 118.667969 " clip-rule="nonzero"/></clipPath><clipPath id="2e48e09c78"><path d="M 1.035156 1.332031 L 869 1.332031 L 869 210 L 1.035156 210 Z M 1.035156 1.332031 " clip-rule="nonzero"/></clipPath><clipPath id="c54175ba00"><path d="M 803 66 L 1438.964844 66 L 1438.964844 210 L 803 210 Z M 803 66 " clip-rule="nonzero"/></clipPath></defs><g clip-path="url(#2bdd058b98)"><path fill="#0047ff" d="M -13.675781 118.917969 L 1444.808594 123.171875 L 1444.808594 986.578125 L -13.675781 986.578125 Z M -13.675781 118.917969 " fill-opacity="1" fill-rule="nonzero"/></g><g clip-path="url(#2e48e09c78)"><path fill="#0047ff" d="M 868.328125 138.378906 C 868.328125 238.359375 671.753906 223.519531 428.796875 169.8125 C -21.746094 70.207031 -14.03125 290.933594 -14.03125 55.296875 C 92.816406 96.035156 163.316406 64.105469 350.941406 21.292969 C 603.765625 -36.40625 838.425781 40.003906 868.328125 138.378906 Z M 868.328125 138.378906 " fill-opacity="1" fill-rule="nonzero"/></g><g clip-path="url(#c54175ba00)"><path fill="#0047ff" d="M 1444.808594 96.894531 C 1444.808594 135.949219 1469.035156 416.214844 1221.988281 416.214844 C 974.941406 416.214844 803.6875 242.238281 803.6875 66.066406 C 953.503906 159.65625 1000.109375 16.359375 1247.871094 85.886719 C 1457.96875 144.839844 1444.808594 57.84375 1444.808594 96.894531 Z M 1444.808594 96.894531 " fill-opacity="1" fill-rule="nonzero"/></g></svg>